<svg xmlns="http://www.w3.org/2000/svg" xmlns:xlink="http://www.w3.org/1999/xlink" version="1.1" id="id_logo_ptx_10_anos" x="0px" y="0px" viewBox="0 0 2274.6 470" style="enable-background:new 0 0 2274.6 470;/* background: #777; */width: 100%;max-width: 240px;margin-top: 5px;" xml:space="preserve">
<style>
    .st0{fill:#AF0F15;}
    .st1{fill:#EC1B23;}
    .st2{fill-rule:evenodd;clip-rule:evenodd;}
    .st3{fill-rule:evenodd;clip-rule:evenodd;fill:#EC1B23;}
    .st2{fill: #fff;}
</style>
<g>
    <path class="st0" d="M1909.2,112.3c55.8,2.2,101.1,47.4,103.2,103.2c2.4,61.2-46.8,111.8-107.5,111.8v-1.1   c0-19.4,11.5-36.7,29-45.1c23.9-11.3,40.1-36.2,38.8-64.6c-1.6-34.7-29.8-62.9-64.5-64.5c-28.4-1.3-53.3,14.9-64.6,38.8   c-8.3,17.5-25.7,29-45.1,29h-1.1C1797.4,159,1848,109.9,1909.2,112.3z"></path>
</g>
<g>
    <path class="st1" d="M1809.6,327.3h-39.7V112.2l0,0c21.9,0,39.7,17.8,39.7,39.7V327.3z"></path>
</g>
<g>
    <path class="st2" d="M751.3,227.2c-2.6-8.4-7.6-15.3-15.1-20.6c-7.6-5.3-16.3-7.9-26.3-7.9c-10.8,0-20.3,3-28.5,8.9   c-5.1,3.7-9.8,10.2-14.2,19.6H751.3z M789.9,257.4H665.5c1.3,8.1,4.5,15.1,8.9,20.8h0l0.3,0.4l0,0l0,0c1.5,1.9,3.2,3.7,4.9,5.4h0v0   c0.6,0.5,1.2,1,1.8,1.4c8.2,6,17.6,8.9,28.5,8.9c10,0,18.7-2.6,26.3-7.9c3.4-2.4,6.4-5.2,8.8-8.2h39c-3.8,9.9-9.4,18.5-16.8,26.1   c-14.5,14.7-33,22.4-55.6,23.2c-0.6,0-2.7,0.1-2.7,0.1l-1,0c-13.7,0-26.1-2.8-37-8.4c-7.4-3.6-14.1-8.5-20.1-14.5   c-15.2-15.2-22.8-34.3-22.8-57.3c0-23.5,7.6-43.1,22.8-58.6c15.2-15.6,34.2-23.3,57.1-23.3c24.3,0,44.1,7.8,59.3,23.2   c15.2,15.5,22.8,35.9,22.8,61.4L789.9,257.4z"></path>
    <path class="st2" d="M975.1,112.2h38.7v57h43c-0.9,0.9-1.7,1.8-2.6,2.7c-8.5,9.2-15,19.5-19.5,30.8h-20.9v124.8h-38.7V112.2"></path>
    <polygon class="st2" points="1238.5,165.5 1283.5,165.5 1314.1,209.6 1344.5,165.5 1388.9,165.5 1336.3,241.8 1395.6,327.6    1350.5,327.6 1313.9,274.5 1277.4,327.6 1232.9,327.6 1291.6,242.3  "></polygon>
    <rect x="1413" y="165.5" class="st2" width="38.7" height="162.1"></rect>
    <path class="st2" d="M1432.4,112.2c6.8,0,12.6,2.5,17.5,7.4c4.9,4.9,7.3,10.8,7.3,17.8c0,6.9-2.4,12.8-7.2,17.6   c-4.8,4.8-10.6,7.3-17.3,7.3c-6.9,0-12.8-2.5-17.6-7.4c-4.9-4.9-7.3-11-7.3-18c0-6.8,2.4-12.6,7.2-17.4   C1419.8,114.7,1425.6,112.2,1432.4,112.2"></path>
    <rect x="1659.9" y="112.2" class="st2" width="38.7" height="215.3"></rect>
    <path class="st2" d="M523.2,205c-12.2,0-22.3,4.1-30.3,12.2c-8,8.2-12.1,18.8-12.1,31.9c0,13.4,4,24.3,12.1,32.5   c8,8.3,18.1,12.4,30.3,12.4c11.8,0,21.8-4.2,29.9-12.6c8.1-8.4,12.1-19.2,12.1-32.2c0-12.9-4-23.6-11.9-31.8   C545.3,209.1,535.3,205,523.2,205 M524,165.5c-23.2,0-42.4,7.5-57.7,22.3c-15.3,14.9-23,34.4-23,58.4c0,3.5,0.5,134,0.5,134h38.7   v-62c12,6.9,25.9,10.3,41.5,10.3c22.5,0,41.4-7.7,56.8-23.1c15.4-15.4,23.1-35.1,23.1-58.9c0-23.7-7.6-43.1-22.7-58.3   C566.1,173,547.1,165.5,524,165.5"></path>
    <path class="st2" d="M882.5,165.5c37.7,0,68.5,30.8,68.5,68.5v93.5h-38.4v-98.9c0-16.5-13.5-30-30-30h0c-16.5,0-30,13.5-30,30v98.9   H814V234C814,196.3,844.8,165.5,882.5,165.5"></path>
    <path class="st2" d="M1134.9,201c-12,0-22,4.2-29.9,12.7c-8,8.4-11.9,19.3-11.9,32.5c0,13.3,4,24.3,12.1,32.9   c8.1,8.6,18,12.9,29.9,12.9c12.2,0,22.3-4.2,30.3-12.7c8.1-8.4,12.1-19.5,12.1-33.3c0-13.4-4-24.3-12.1-32.6   C1157.3,205.2,1147.2,201,1134.9,201 M1133.7,165.5c-1.2,0-5.7,0-6.8,0c-20.2,0-37.3,7.6-51.4,22.8c-9.8,10.6-16.2,23.2-19.2,37.8   c-1.3,6.3-2,12.9-2,19.9v0.8c0,22.9,7.3,42.1,21.9,57.6c14.6,15.5,31.9,23.2,51.9,23.2c0.9,0,4.8,0,5.9,0   c15.7,0,29.6-3.5,41.7-10.4v10.4h38.7v-80.1c0,0,0-1.1,0-1.7c0-23.9-7.6-43.2-22.9-58.1C1176.3,172.9,1157,165.5,1133.7,165.5"></path>
    <path class="st2" d="M1556.3,201c-12,0-22,4.2-29.9,12.7c-8,8.4-11.9,19.3-11.9,32.5c0,13.3,4,24.3,12.1,32.9   c8.1,8.6,18,12.9,29.9,12.9c12.2,0,22.3-4.2,30.3-12.7c8-8.4,12.1-19.5,12.1-33.3c0-13.4-4-24.3-12.1-32.6   C1578.8,205.2,1568.6,201,1556.3,201 M1555.2,165.5c-1.2,0-5.7,0-6.8,0c-20.2,0-37.3,7.6-51.4,22.8c-9.8,10.6-16.2,23.2-19.2,37.8   c-1.3,6.3-2,12.9-2,19.9l0,0.4l0,0.5c0,22.9,7.3,42.1,21.9,57.6c14.6,15.5,31.9,23.2,51.9,23.2c0.9,0,4.8,0,5.9,0   c15.7,0,29.6-3.5,41.7-10.4v10.4h38.7v-80.1c0,0,0-1.1,0-1.7c0-23.9-7.6-43.2-22.9-58.1C1597.8,172.9,1578.4,165.5,1555.2,165.5"></path>
    <path class="st1" d="M370.5,198.5c1.4,2.2,2.1,4.7,2.2,7.2C372.7,203.1,372,200.6,370.5,198.5z"></path>
    <path class="st1" d="M312.5,161.5C312.5,161.5,312.5,161.5,312.5,161.5c0,0,0.1,0,0.1,0L312.5,161.5z"></path>
    <path class="st0" d="M312.5,161.6c-1.6,0.4-3.1,1.1-4.5,2.2L103.7,312.1l16.7,51.4c0.4,1.3,1.1,2.5,1.9,3.7   c4.5,6.2,13.2,7.6,19.5,3.1l137.5-99.6l0,0l0.2-0.2L312.1,170h0C313.1,167.3,313.3,164.3,312.5,161.6z"></path>
    <path class="st3" d="M221.3,88.9c3.5,2.9,6.8,6.3,9.6,10.2c18.1,24.9,12.6,59.8-12.3,77.8L90.2,270.3l-19.4-59.6l0,0   c-2-5.7-0.2-12.2,4.9-16c0.1-0.1,0.2-0.2,0.3-0.2l0,0L221.3,88.9L221.3,88.9L221.3,88.9z"></path>
    <path class="st3" d="M370,197.7c-0.8-1.2-1.8-2.1-2.9-3l0,0c-0.1-0.1-42.6-30.9-42.6-30.9c-2.7-2.1-6.1-3-9.5-2.8   c-0.9,0.1-1.7,0.2-2.6,0.4c0.8,2.8,0.6,5.8-0.3,8.4c0,0-36.5,111.8-37.6,115.5c-0.7,2.3-2.4,7.3-2.4,7.3l0,0   c-8.8,24.8-24.7,47.1-47.2,63.5c-23.6,17.1-51,25.4-78.6,25.4l0,0l160.2-0.2l0,0h0c2.8,0,5.6-0.9,8-2.7c2.5-1.8,4.2-4.3,5.1-7l0,0   l52.3-161.2h0C373.4,206.5,372.8,201.6,370,197.7z"></path>
</g>
<g>
    <g>
        <path class="st3" d="M2102.6,151.3c9.7,0,17.6,7.9,17.6,17.6v24h-9.9v-25.4c0-4.2-3.5-7.7-7.7-7.7h0c-4.2,0-7.7,3.5-7.7,7.7v25.4    h-9.9v-24C2085,159.2,2092.9,151.3,2102.6,151.3"></path>
    </g>
    <g>
        <path class="st3" d="M2054.4,160.4c-3.1,0-5.6,1.1-7.7,3.3c-2,2.2-3.1,5-3.1,8.4c0,3.4,1,6.2,3.1,8.5c2.1,2.2,4.6,3.3,7.7,3.3    c3.1,0,5.7-1.1,7.8-3.3c2.1-2.2,3.1-5,3.1-8.5c0-3.4-1-6.2-3.1-8.4C2060.1,161.4,2057.5,160.4,2054.4,160.4 M2054.1,151.3    c-0.3,0-1.5,0-1.7,0c-5.2,0-9.6,2-13.2,5.8c-2.5,2.7-4.2,5.9-4.9,9.7c-0.3,1.6-0.5,3.3-0.5,5.1v0.2c0,5.9,1.9,10.8,5.6,14.8    c3.7,4,8.2,5.9,13.3,5.9c0.2,0,1.2,0,1.5,0c4,0,7.6-0.9,10.7-2.7v2.7h9.9c0,0,0-20.9,0-21c0-6.1-2-11.1-5.9-14.9    C2065,153.2,2060,151.3,2054.1,151.3"></path>
    </g>
    <g>
        <path class="st1" d="M2204.1,157.9l-6.2,6.2c-2.5-2.5-4.8-3.7-6.8-3.7c-1.1,0-2,0.2-2.6,0.7c-0.6,0.5-1,1.1-1,1.8    c0,0.5,0.2,1,0.6,1.5c0.4,0.5,1.4,1.1,3,1.8l3.7,1.8c3.9,1.9,6.5,3.8,7.9,5.8c1.4,2,2.2,4.3,2.2,6.9c0,3.5-1.3,6.5-3.9,8.9    s-6.1,3.5-10.4,3.5c-5.8,0-10.4-2.3-13.9-6.8l6.1-6.7c1.2,1.4,2.5,2.5,4.1,3.3c1.6,0.8,3,1.3,4.2,1.3c1.3,0,2.4-0.3,3.2-1    c0.8-0.6,1.2-1.4,1.2-2.2c0-1.5-1.5-3-4.4-4.5l-3.4-1.7c-6.4-3.2-9.7-7.3-9.7-12.2c0-3.1,1.2-5.8,3.6-8.1c2.4-2.2,5.5-3.3,9.3-3.3    c2.6,0,5,0.6,7.3,1.7C2200.6,154.1,2202.5,155.7,2204.1,157.9z"></path>
    </g>
    <g>
        <path class="st3" d="M2163.9,157.1c-3.9-3.9-8.8-5.8-14.7-5.8c-0.1,0-0.2,0-0.3,0c-0.1,0-0.2,0-0.3,0c-5.9,0-10.8,1.9-14.7,5.8    c-3.9,3.9-5.8,8.9-5.8,14.9c0,6.1,2,11.2,5.9,15.1c4,3.9,8.8,5.9,14.6,5.9c0.1,0,0.2,0,0.3,0c0.1,0,0.2,0,0.3,0    c5.8,0,10.6-2,14.6-5.9c4-4,5.9-9,5.9-15.1C2169.7,166,2167.8,161,2163.9,157.1z M2156.7,181c-2.1,2.2-4.6,3.2-7.7,3.2    c0,0,0,0-0.1,0c0,0,0,0,0,0c-3,0-5.6-1.1-7.7-3.2c-2.1-2.2-3.1-4.9-3.1-8.3c0-3.3,1-6,3.1-8.2c2-2.1,4.6-3.2,7.7-3.2c0,0,0,0,0,0    c0,0,0,0,0.1,0c3.1,0,5.7,1.1,7.7,3.2c2,2.1,3.1,4.8,3.1,8.2C2159.8,176.1,2158.8,178.9,2156.7,181z"></path>
    </g>
</g>
<g>
    <path class="st2" d="M2106.1,201.5h15.3v22.5h17c-0.3,0.3-0.7,0.7-1,1c-3.4,3.6-5.9,7.7-7.7,12.2h-8.3v49.3h-15.3V201.5"></path>
    <polygon class="st2" points="2142.7,222.6 2160.5,222.6 2172.6,240 2184.6,222.6 2202.2,222.6 2181.4,252.7 2204.8,286.6    2187,286.6 2172.5,265.6 2158.1,286.6 2140.5,286.6 2163.7,252.9  " style="
    /* fill: #fff; */
"></polygon>
    <path class="st2" d="M2064.6,238.2c-4.8,0-8.8,1.6-12,4.8c-3.2,3.2-4.8,7.4-4.8,12.6c0,5.3,1.6,9.6,4.8,12.9   c3.2,3.3,7.2,4.9,12,4.9c4.7,0,8.6-1.7,11.8-5c3.2-3.3,4.8-7.6,4.8-12.7c0-5.1-1.6-9.3-4.7-12.6   C2073.4,239.8,2069.4,238.2,2064.6,238.2 M2065,222.6c-9.2,0-16.8,2.9-22.8,8.8c-6.1,5.9-9.1,13.6-9.1,23.1c0,1.4,0.2,53,0.2,53   h15.3v-24.5c4.8,2.7,10.2,4.1,16.4,4.1c8.9,0,16.4-3.1,22.5-9.1c6.1-6.1,9.1-13.9,9.1-23.3c0-9.4-3-17.1-9-23   C2081.6,225.5,2074.1,222.6,2065,222.6"></path>
</g>
<g>
    <path class="st1" d="M1900.7,327.2c-55.8-2.2-101.1-47.4-103.2-103.2c-2.4-61.2,46.8-111.8,107.5-111.8v1.1   c0,19.4-11.5,36.7-29,45.1c-23.9,11.3-40.1,36.2-38.8,64.6c1.6,34.7,29.8,62.9,64.5,64.5c28.4,1.3,53.3-14.9,64.6-38.8   c8.3-17.5,25.7-29,45.1-29h1.1C2012.5,280.4,1962,329.6,1900.7,327.2z"></path>
</g>
</svg>